<mxfile host="app.diagrams.net" agent="Mozilla/5.0 (X11; Linux x86_64) AppleWebKit/537.36 (KHTML, like Gecko) Chrome/136.0.0.0 Safari/537.36" version="27.1.1">
  <diagram name="Page-1" id="42789a77-a242-8287-6e28-9cd8cfd52e62">
    <mxGraphModel dx="1355" dy="759" grid="1" gridSize="10" guides="1" tooltips="1" connect="1" arrows="1" fold="1" page="1" pageScale="1" pageWidth="1100" pageHeight="850" background="none" math="0" shadow="0">
      <root>
        <mxCell id="0" />
        <mxCell id="1" parent="0" />
        <mxCell id="1ea317790d2ca983-12" style="edgeStyle=none;rounded=1;html=1;labelBackgroundColor=none;startArrow=none;startFill=0;startSize=5;endArrow=classicThin;endFill=1;endSize=5;jettySize=auto;orthogonalLoop=1;strokeColor=#B3B3B3;strokeWidth=1;fontFamily=Verdana;fontSize=12" parent="1" source="1ea317790d2ca983-1" target="1ea317790d2ca983-2" edge="1">
          <mxGeometry relative="1" as="geometry" />
        </mxCell>
        <mxCell id="kMWV7Tq6YKES29FpWrLy-1" value="any" style="edgeLabel;html=1;align=center;verticalAlign=middle;resizable=0;points=[];" parent="1ea317790d2ca983-12" vertex="1" connectable="0">
          <mxGeometry x="0.04" y="-2" relative="1" as="geometry">
            <mxPoint as="offset" />
          </mxGeometry>
        </mxCell>
        <mxCell id="1ea317790d2ca983-1" value="" style="ellipse;whiteSpace=wrap;html=1;rounded=0;shadow=1;comic=0;labelBackgroundColor=none;strokeWidth=1;fontFamily=Verdana;fontSize=12;align=center;direction=west;flipH=0;flipV=1;perimeter=ellipsePerimeter;fillColor=#000000;fillStyle=solid;" parent="1" vertex="1">
          <mxGeometry x="222.5" y="70" width="25" height="20" as="geometry" />
        </mxCell>
        <mxCell id="1ea317790d2ca983-21" value="&quot;1&quot;" style="edgeStyle=none;rounded=1;html=1;labelBackgroundColor=none;startArrow=none;startFill=0;startSize=5;endArrow=classicThin;endFill=1;endSize=5;jettySize=auto;orthogonalLoop=1;strokeColor=#B3B3B3;strokeWidth=1;fontFamily=Verdana;fontSize=12" parent="1" source="1ea317790d2ca983-2" target="1ea317790d2ca983-7" edge="1">
          <mxGeometry relative="1" as="geometry" />
        </mxCell>
        <mxCell id="1ea317790d2ca983-22" value="&quot;2&quot;" style="edgeStyle=none;rounded=1;html=1;labelBackgroundColor=none;startArrow=none;startFill=0;startSize=5;endArrow=classicThin;endFill=1;endSize=5;jettySize=auto;orthogonalLoop=1;strokeColor=#B3B3B3;strokeWidth=1;fontFamily=Verdana;fontSize=12" parent="1" source="1ea317790d2ca983-2" target="1ea317790d2ca983-6" edge="1">
          <mxGeometry relative="1" as="geometry" />
        </mxCell>
        <mxCell id="kMWV7Tq6YKES29FpWrLy-3" style="rounded=1;orthogonalLoop=1;jettySize=auto;html=1;exitX=0;exitY=0;exitDx=0;exitDy=0;strokeColor=#B3B3B3;strokeWidth=1;align=center;verticalAlign=middle;fontFamily=Verdana;fontSize=12;fontColor=default;labelBackgroundColor=none;startArrow=none;startFill=0;startSize=5;endArrow=classicThin;endFill=1;endSize=5;" parent="1" source="1ea317790d2ca983-2" target="kMWV7Tq6YKES29FpWrLy-2" edge="1">
          <mxGeometry relative="1" as="geometry" />
        </mxCell>
        <mxCell id="kMWV7Tq6YKES29FpWrLy-4" value="&quot;3&quot;" style="edgeLabel;html=1;align=center;verticalAlign=middle;resizable=0;points=[];" parent="kMWV7Tq6YKES29FpWrLy-3" vertex="1" connectable="0">
          <mxGeometry x="-0.0405" y="1" relative="1" as="geometry">
            <mxPoint x="-6" as="offset" />
          </mxGeometry>
        </mxCell>
        <mxCell id="1ea317790d2ca983-2" value="&lt;span&gt;MainMenu&lt;/span&gt;" style="ellipse;whiteSpace=wrap;html=1;rounded=0;shadow=1;comic=0;labelBackgroundColor=none;strokeWidth=1;fontFamily=Verdana;fontSize=12;align=center;direction=west;flipH=0;flipV=1;" parent="1" vertex="1">
          <mxGeometry x="197.5" y="180" width="75" height="50" as="geometry" />
        </mxCell>
        <mxCell id="1ea317790d2ca983-23" value="valid text" style="edgeStyle=none;rounded=1;html=1;labelBackgroundColor=none;startArrow=none;startFill=0;startSize=5;endArrow=classicThin;endFill=1;endSize=5;jettySize=auto;orthogonalLoop=1;strokeColor=#B3B3B3;strokeWidth=1;fontFamily=Verdana;fontSize=12" parent="1" source="1ea317790d2ca983-6" target="1ea317790d2ca983-8" edge="1">
          <mxGeometry x="-0.3593" y="6" relative="1" as="geometry">
            <Array as="points">
              <mxPoint x="260" y="410" />
            </Array>
            <mxPoint as="offset" />
          </mxGeometry>
        </mxCell>
        <mxCell id="kMWV7Tq6YKES29FpWrLy-11" style="edgeStyle=none;shape=connector;rounded=1;orthogonalLoop=1;jettySize=auto;html=1;exitX=0.364;exitY=1.02;exitDx=0;exitDy=0;entryX=0.5;entryY=1;entryDx=0;entryDy=0;strokeColor=#B3B3B3;strokeWidth=1;align=center;verticalAlign=middle;fontFamily=Verdana;fontSize=12;fontColor=default;labelBackgroundColor=none;startArrow=none;startFill=0;startSize=5;endArrow=classicThin;endFill=1;endSize=5;exitPerimeter=0;" parent="1" source="1ea317790d2ca983-6" target="kMWV7Tq6YKES29FpWrLy-10" edge="1">
          <mxGeometry relative="1" as="geometry" />
        </mxCell>
        <mxCell id="kMWV7Tq6YKES29FpWrLy-13" value="invalid text" style="edgeLabel;html=1;align=center;verticalAlign=middle;resizable=0;points=[];fontFamily=Verdana;fontSize=12;fontColor=default;labelBackgroundColor=none;rotation=0;" parent="kMWV7Tq6YKES29FpWrLy-11" vertex="1" connectable="0">
          <mxGeometry x="0.4735" y="-1" relative="1" as="geometry">
            <mxPoint x="-16" y="-7" as="offset" />
          </mxGeometry>
        </mxCell>
        <mxCell id="1ea317790d2ca983-6" value="&lt;span&gt;AddColmeiaForm&lt;/span&gt;" style="ellipse;whiteSpace=wrap;html=1;rounded=0;shadow=1;comic=0;labelBackgroundColor=none;strokeWidth=1;fontFamily=Verdana;fontSize=12;align=center;direction=west;flipH=0;flipV=1;" parent="1" vertex="1">
          <mxGeometry x="180" y="320" width="110" height="50" as="geometry" />
        </mxCell>
        <mxCell id="kMWV7Tq6YKES29FpWrLy-7" style="edgeStyle=orthogonalEdgeStyle;shape=connector;rounded=1;orthogonalLoop=1;jettySize=auto;html=1;entryX=1;entryY=0.5;entryDx=0;entryDy=0;strokeColor=#B3B3B3;strokeWidth=1;align=center;verticalAlign=middle;fontFamily=Verdana;fontSize=12;fontColor=default;labelBackgroundColor=none;startArrow=none;startFill=0;startSize=5;endArrow=classicThin;endFill=1;endSize=5;curved=1;" parent="1" source="1ea317790d2ca983-7" target="1ea317790d2ca983-1" edge="1">
          <mxGeometry relative="1" as="geometry">
            <Array as="points">
              <mxPoint x="130" y="80" />
            </Array>
          </mxGeometry>
        </mxCell>
        <mxCell id="1ea317790d2ca983-7" value="&lt;span&gt;ListColmeia&lt;/span&gt;" style="ellipse;whiteSpace=wrap;html=1;rounded=0;shadow=1;comic=0;labelBackgroundColor=none;strokeWidth=1;fontFamily=Verdana;fontSize=12;align=center;direction=west;flipH=0;flipV=1;" parent="1" vertex="1">
          <mxGeometry x="80" y="320" width="75" height="50" as="geometry" />
        </mxCell>
        <mxCell id="kMWV7Tq6YKES29FpWrLy-26" style="edgeStyle=orthogonalEdgeStyle;shape=connector;rounded=1;orthogonalLoop=1;jettySize=auto;html=1;exitX=0.5;exitY=0;exitDx=0;exitDy=0;entryX=1;entryY=0.5;entryDx=0;entryDy=0;strokeColor=#B3B3B3;strokeWidth=1;align=center;verticalAlign=middle;fontFamily=Verdana;fontSize=12;fontColor=default;labelBackgroundColor=none;startArrow=none;startFill=0;startSize=5;endArrow=classicThin;endFill=1;endSize=5;curved=1;" parent="1" source="1ea317790d2ca983-8" target="1ea317790d2ca983-1" edge="1">
          <mxGeometry relative="1" as="geometry">
            <Array as="points">
              <mxPoint x="291" y="570" />
              <mxPoint x="60" y="570" />
              <mxPoint x="60" y="80" />
            </Array>
          </mxGeometry>
        </mxCell>
        <mxCell id="1ea317790d2ca983-8" value="Success" style="ellipse;whiteSpace=wrap;html=1;rounded=0;shadow=1;comic=0;labelBackgroundColor=none;strokeWidth=1;fontFamily=Verdana;fontSize=12;align=center;direction=west;flipH=0;flipV=1;" parent="1" vertex="1">
          <mxGeometry x="253" y="500" width="75" height="50" as="geometry" />
        </mxCell>
        <mxCell id="kMWV7Tq6YKES29FpWrLy-8" style="edgeStyle=none;shape=connector;rounded=1;orthogonalLoop=1;jettySize=auto;html=1;entryX=0.5;entryY=1;entryDx=0;entryDy=0;strokeColor=#B3B3B3;strokeWidth=1;align=center;verticalAlign=middle;fontFamily=Verdana;fontSize=12;fontColor=default;labelBackgroundColor=none;startArrow=none;startFill=0;startSize=5;endArrow=classicThin;endFill=1;endSize=5;exitX=0.5;exitY=0;exitDx=0;exitDy=0;" parent="1" source="kMWV7Tq6YKES29FpWrLy-2" target="1ea317790d2ca983-8" edge="1">
          <mxGeometry relative="1" as="geometry" />
        </mxCell>
        <mxCell id="kMWV7Tq6YKES29FpWrLy-9" value="valid text" style="edgeLabel;html=1;align=center;verticalAlign=middle;resizable=0;points=[];fontFamily=Verdana;fontSize=12;fontColor=default;labelBackgroundColor=none;" parent="kMWV7Tq6YKES29FpWrLy-8" vertex="1" connectable="0">
          <mxGeometry x="0.0264" y="3" relative="1" as="geometry">
            <mxPoint x="12" y="-28" as="offset" />
          </mxGeometry>
        </mxCell>
        <mxCell id="kMWV7Tq6YKES29FpWrLy-12" style="edgeStyle=none;shape=connector;rounded=1;orthogonalLoop=1;jettySize=auto;html=1;exitX=0.5;exitY=0;exitDx=0;exitDy=0;entryX=0.5;entryY=1;entryDx=0;entryDy=0;strokeColor=#B3B3B3;strokeWidth=1;align=center;verticalAlign=middle;fontFamily=Verdana;fontSize=12;fontColor=default;labelBackgroundColor=none;startArrow=none;startFill=0;startSize=5;endArrow=classicThin;endFill=1;endSize=5;" parent="1" source="kMWV7Tq6YKES29FpWrLy-2" target="kMWV7Tq6YKES29FpWrLy-10" edge="1">
          <mxGeometry relative="1" as="geometry" />
        </mxCell>
        <mxCell id="kMWV7Tq6YKES29FpWrLy-14" value="invalid text" style="edgeLabel;html=1;align=center;verticalAlign=middle;resizable=0;points=[];fontFamily=Verdana;fontSize=12;fontColor=default;labelBackgroundColor=none;" parent="kMWV7Tq6YKES29FpWrLy-12" vertex="1" connectable="0">
          <mxGeometry x="0.0913" y="-3" relative="1" as="geometry">
            <mxPoint x="26" y="17" as="offset" />
          </mxGeometry>
        </mxCell>
        <mxCell id="kMWV7Tq6YKES29FpWrLy-18" style="edgeStyle=orthogonalEdgeStyle;shape=connector;rounded=1;orthogonalLoop=1;jettySize=auto;html=1;exitX=0.5;exitY=1;exitDx=0;exitDy=0;entryX=0;entryY=0.5;entryDx=0;entryDy=0;strokeColor=#B3B3B3;strokeWidth=2;align=center;verticalAlign=middle;fontFamily=Verdana;fontSize=12;fontColor=default;labelBackgroundColor=none;startArrow=none;startFill=0;startSize=5;endArrow=classicThin;endFill=1;endSize=5;curved=1;" parent="1" source="kMWV7Tq6YKES29FpWrLy-2" target="1ea317790d2ca983-1" edge="1">
          <mxGeometry relative="1" as="geometry" />
        </mxCell>
        <mxCell id="kMWV7Tq6YKES29FpWrLy-19" value="&quot;sair&quot;" style="edgeLabel;html=1;align=center;verticalAlign=middle;resizable=0;points=[];fontFamily=Verdana;fontSize=12;fontColor=default;labelBackgroundColor=none;" parent="kMWV7Tq6YKES29FpWrLy-18" vertex="1" connectable="0">
          <mxGeometry x="-0.2442" y="-2" relative="1" as="geometry">
            <mxPoint as="offset" />
          </mxGeometry>
        </mxCell>
        <mxCell id="kMWV7Tq6YKES29FpWrLy-2" value="&lt;span&gt;AddBatchColmeiaForm&lt;/span&gt;" style="ellipse;whiteSpace=wrap;html=1;rounded=0;shadow=1;comic=0;labelBackgroundColor=none;strokeWidth=1;fontFamily=Verdana;fontSize=12;align=center;direction=west;flipH=0;flipV=1;" parent="1" vertex="1">
          <mxGeometry x="310" y="320" width="130" height="50" as="geometry" />
        </mxCell>
        <mxCell id="kMWV7Tq6YKES29FpWrLy-15" style="edgeStyle=orthogonalEdgeStyle;shape=connector;rounded=1;orthogonalLoop=1;jettySize=auto;html=1;entryX=0;entryY=0.5;entryDx=0;entryDy=0;strokeColor=#B3B3B3;strokeWidth=1;align=center;verticalAlign=middle;fontFamily=Verdana;fontSize=12;fontColor=default;labelBackgroundColor=none;startArrow=none;startFill=0;startSize=5;endArrow=classicThin;endFill=1;endSize=5;curved=1;" parent="1" source="kMWV7Tq6YKES29FpWrLy-10" target="kMWV7Tq6YKES29FpWrLy-2" edge="1">
          <mxGeometry relative="1" as="geometry">
            <Array as="points">
              <mxPoint x="500" y="525" />
              <mxPoint x="500" y="345" />
            </Array>
          </mxGeometry>
        </mxCell>
        <mxCell id="kMWV7Tq6YKES29FpWrLy-10" value="Fail" style="ellipse;whiteSpace=wrap;html=1;rounded=0;shadow=1;comic=0;labelBackgroundColor=none;strokeWidth=1;fontFamily=Verdana;fontSize=12;align=center;direction=west;flipH=0;flipV=1;" parent="1" vertex="1">
          <mxGeometry x="390" y="500" width="75" height="50" as="geometry" />
        </mxCell>
        <mxCell id="kMWV7Tq6YKES29FpWrLy-16" style="edgeStyle=orthogonalEdgeStyle;shape=connector;rounded=1;orthogonalLoop=1;jettySize=auto;html=1;exitX=0;exitY=1;exitDx=0;exitDy=0;entryX=0;entryY=0.5;entryDx=0;entryDy=0;strokeColor=#B3B3B3;strokeWidth=2;align=center;verticalAlign=middle;fontFamily=Verdana;fontSize=12;fontColor=default;labelBackgroundColor=none;startArrow=none;startFill=0;startSize=5;endArrow=classicThin;endFill=1;endSize=5;curved=1;" parent="1" source="1ea317790d2ca983-6" target="1ea317790d2ca983-1" edge="1">
          <mxGeometry relative="1" as="geometry">
            <Array as="points">
              <mxPoint x="340" y="327" />
              <mxPoint x="340" y="80" />
            </Array>
          </mxGeometry>
        </mxCell>
        <mxCell id="kMWV7Tq6YKES29FpWrLy-17" value="&quot;sair&quot;" style="edgeLabel;html=1;align=center;verticalAlign=middle;resizable=0;points=[];fontFamily=Verdana;fontSize=12;fontColor=default;labelBackgroundColor=none;" parent="kMWV7Tq6YKES29FpWrLy-16" vertex="1" connectable="0">
          <mxGeometry x="-0.0045" y="-2" relative="1" as="geometry">
            <mxPoint as="offset" />
          </mxGeometry>
        </mxCell>
        <mxCell id="kMWV7Tq6YKES29FpWrLy-28" value="" style="shape=table;startSize=0;container=1;collapsible=0;childLayout=tableLayout;fontSize=16;fontFamily=Verdana;fontColor=default;labelBackgroundColor=none;" parent="1" vertex="1">
          <mxGeometry x="540" y="70" width="460" height="436" as="geometry" />
        </mxCell>
        <mxCell id="kMWV7Tq6YKES29FpWrLy-29" value="" style="shape=tableRow;horizontal=0;startSize=0;swimlaneHead=0;swimlaneBody=0;strokeColor=inherit;top=0;left=0;bottom=0;right=0;collapsible=0;dropTarget=0;fillColor=none;points=[[0,0.5],[1,0.5]];portConstraint=eastwest;fontSize=16;fontFamily=Verdana;fontColor=default;labelBackgroundColor=none;" parent="kMWV7Tq6YKES29FpWrLy-28" vertex="1">
          <mxGeometry width="460" height="31" as="geometry" />
        </mxCell>
        <mxCell id="kMWV7Tq6YKES29FpWrLy-30" value="init" style="shape=partialRectangle;html=1;whiteSpace=wrap;connectable=0;strokeColor=inherit;overflow=hidden;fillColor=none;top=0;left=0;bottom=0;right=0;pointerEvents=1;fontSize=16;fontFamily=Verdana;fontColor=default;labelBackgroundColor=none;" parent="kMWV7Tq6YKES29FpWrLy-29" vertex="1">
          <mxGeometry width="140" height="31" as="geometry">
            <mxRectangle width="140" height="31" as="alternateBounds" />
          </mxGeometry>
        </mxCell>
        <mxCell id="kMWV7Tq6YKES29FpWrLy-31" value="any" style="shape=partialRectangle;html=1;whiteSpace=wrap;connectable=0;strokeColor=inherit;overflow=hidden;fillColor=none;top=0;left=0;bottom=0;right=0;pointerEvents=1;fontSize=16;fontFamily=Verdana;fontColor=default;labelBackgroundColor=none;" parent="kMWV7Tq6YKES29FpWrLy-29" vertex="1">
          <mxGeometry x="140" width="90" height="31" as="geometry">
            <mxRectangle width="90" height="31" as="alternateBounds" />
          </mxGeometry>
        </mxCell>
        <mxCell id="kMWV7Tq6YKES29FpWrLy-32" value="&lt;span style=&quot;font-size: 12px;&quot;&gt;MainMenu&lt;/span&gt;" style="shape=partialRectangle;html=1;whiteSpace=wrap;connectable=0;strokeColor=default;overflow=hidden;fillColor=default;top=0;left=0;bottom=0;right=0;pointerEvents=1;fontSize=16;fontFamily=Verdana;fontColor=default;labelBackgroundColor=none;align=center;verticalAlign=middle;" parent="kMWV7Tq6YKES29FpWrLy-29" vertex="1">
          <mxGeometry x="230" width="155" height="31" as="geometry">
            <mxRectangle width="155" height="31" as="alternateBounds" />
          </mxGeometry>
        </mxCell>
        <mxCell id="T-Q8wNnsPFHWrumnl-Iw-1" value="nil" style="shape=partialRectangle;html=1;whiteSpace=wrap;connectable=0;strokeColor=default;overflow=hidden;fillColor=default;top=0;left=0;bottom=0;right=0;pointerEvents=1;fontSize=16;fontFamily=Verdana;fontColor=default;labelBackgroundColor=none;align=center;verticalAlign=middle;" vertex="1" parent="kMWV7Tq6YKES29FpWrLy-29">
          <mxGeometry x="385" width="75" height="31" as="geometry">
            <mxRectangle width="75" height="31" as="alternateBounds" />
          </mxGeometry>
        </mxCell>
        <mxCell id="kMWV7Tq6YKES29FpWrLy-37" value="" style="shape=tableRow;horizontal=0;startSize=0;swimlaneHead=0;swimlaneBody=0;strokeColor=inherit;top=0;left=0;bottom=0;right=0;collapsible=0;dropTarget=0;fillColor=none;points=[[0,0.5],[1,0.5]];portConstraint=eastwest;fontSize=16;fontFamily=Verdana;fontColor=default;labelBackgroundColor=none;" parent="kMWV7Tq6YKES29FpWrLy-28" vertex="1">
          <mxGeometry y="31" width="460" height="32" as="geometry" />
        </mxCell>
        <mxCell id="kMWV7Tq6YKES29FpWrLy-38" value="&lt;span style=&quot;font-size: 12px;&quot;&gt;MainMenu&lt;/span&gt;" style="shape=partialRectangle;html=1;whiteSpace=wrap;connectable=0;strokeColor=inherit;overflow=hidden;fillColor=none;top=0;left=0;bottom=0;right=0;pointerEvents=1;fontSize=16;fontFamily=Verdana;fontColor=default;labelBackgroundColor=none;" parent="kMWV7Tq6YKES29FpWrLy-37" vertex="1">
          <mxGeometry width="140" height="32" as="geometry">
            <mxRectangle width="140" height="32" as="alternateBounds" />
          </mxGeometry>
        </mxCell>
        <mxCell id="kMWV7Tq6YKES29FpWrLy-39" value="1" style="shape=partialRectangle;html=1;whiteSpace=wrap;connectable=0;strokeColor=inherit;overflow=hidden;fillColor=none;top=0;left=0;bottom=0;right=0;pointerEvents=1;fontSize=16;fontFamily=Verdana;fontColor=default;labelBackgroundColor=none;" parent="kMWV7Tq6YKES29FpWrLy-37" vertex="1">
          <mxGeometry x="140" width="90" height="32" as="geometry">
            <mxRectangle width="90" height="32" as="alternateBounds" />
          </mxGeometry>
        </mxCell>
        <mxCell id="kMWV7Tq6YKES29FpWrLy-40" value="&lt;span style=&quot;font-size: 12px;&quot;&gt;ListColmeia&lt;/span&gt;" style="shape=partialRectangle;html=1;whiteSpace=wrap;connectable=0;strokeColor=inherit;overflow=hidden;fillColor=none;top=0;left=0;bottom=0;right=0;pointerEvents=1;fontSize=16;fontFamily=Verdana;fontColor=default;labelBackgroundColor=none;align=center;verticalAlign=middle;" parent="kMWV7Tq6YKES29FpWrLy-37" vertex="1">
          <mxGeometry x="230" width="155" height="32" as="geometry">
            <mxRectangle width="155" height="32" as="alternateBounds" />
          </mxGeometry>
        </mxCell>
        <mxCell id="T-Q8wNnsPFHWrumnl-Iw-2" value="nil" style="shape=partialRectangle;html=1;whiteSpace=wrap;connectable=0;strokeColor=inherit;overflow=hidden;fillColor=none;top=0;left=0;bottom=0;right=0;pointerEvents=1;fontSize=16;fontFamily=Verdana;fontColor=default;labelBackgroundColor=none;align=center;verticalAlign=middle;" vertex="1" parent="kMWV7Tq6YKES29FpWrLy-37">
          <mxGeometry x="385" width="75" height="32" as="geometry">
            <mxRectangle width="75" height="32" as="alternateBounds" />
          </mxGeometry>
        </mxCell>
        <mxCell id="kMWV7Tq6YKES29FpWrLy-33" value="" style="shape=tableRow;horizontal=0;startSize=0;swimlaneHead=0;swimlaneBody=0;strokeColor=inherit;top=0;left=0;bottom=0;right=0;collapsible=0;dropTarget=0;fillColor=none;points=[[0,0.5],[1,0.5]];portConstraint=eastwest;fontSize=16;fontFamily=Verdana;fontColor=default;labelBackgroundColor=none;" parent="kMWV7Tq6YKES29FpWrLy-28" vertex="1">
          <mxGeometry y="63" width="460" height="31" as="geometry" />
        </mxCell>
        <mxCell id="kMWV7Tq6YKES29FpWrLy-34" value="&lt;span style=&quot;font-size: 12px;&quot;&gt;MainMenu&lt;/span&gt;" style="shape=partialRectangle;html=1;whiteSpace=wrap;connectable=0;strokeColor=inherit;overflow=hidden;fillColor=none;top=0;left=0;bottom=0;right=0;pointerEvents=1;fontSize=16;fontFamily=Verdana;fontColor=default;labelBackgroundColor=none;" parent="kMWV7Tq6YKES29FpWrLy-33" vertex="1">
          <mxGeometry width="140" height="31" as="geometry">
            <mxRectangle width="140" height="31" as="alternateBounds" />
          </mxGeometry>
        </mxCell>
        <mxCell id="kMWV7Tq6YKES29FpWrLy-35" value="2" style="shape=partialRectangle;html=1;whiteSpace=wrap;connectable=0;strokeColor=inherit;overflow=hidden;fillColor=none;top=0;left=0;bottom=0;right=0;pointerEvents=1;fontSize=16;fontFamily=Verdana;fontColor=default;labelBackgroundColor=none;" parent="kMWV7Tq6YKES29FpWrLy-33" vertex="1">
          <mxGeometry x="140" width="90" height="31" as="geometry">
            <mxRectangle width="90" height="31" as="alternateBounds" />
          </mxGeometry>
        </mxCell>
        <mxCell id="kMWV7Tq6YKES29FpWrLy-36" value="&lt;span style=&quot;font-size: 12px;&quot;&gt;AddColmeiaForm&lt;/span&gt;" style="shape=partialRectangle;html=1;whiteSpace=wrap;connectable=0;strokeColor=inherit;overflow=hidden;fillColor=none;top=0;left=0;bottom=0;right=0;pointerEvents=1;fontSize=16;fontFamily=Verdana;fontColor=default;labelBackgroundColor=none;align=center;verticalAlign=middle;" parent="kMWV7Tq6YKES29FpWrLy-33" vertex="1">
          <mxGeometry x="230" width="155" height="31" as="geometry">
            <mxRectangle width="155" height="31" as="alternateBounds" />
          </mxGeometry>
        </mxCell>
        <mxCell id="T-Q8wNnsPFHWrumnl-Iw-3" value="&lt;span style=&quot;color: rgb(0, 0, 0); font-family: Verdana; font-size: 16px; font-style: normal; font-variant-ligatures: normal; font-variant-caps: normal; font-weight: 400; letter-spacing: normal; orphans: 2; text-align: center; text-indent: 0px; text-transform: none; widows: 2; word-spacing: 0px; -webkit-text-stroke-width: 0px; white-space: normal; background-color: rgb(236, 236, 236); text-decoration-thickness: initial; text-decoration-style: initial; text-decoration-color: initial; display: inline !important; float: none;&quot;&gt;nil&lt;/span&gt;" style="shape=partialRectangle;html=1;whiteSpace=wrap;connectable=0;strokeColor=inherit;overflow=hidden;fillColor=none;top=0;left=0;bottom=0;right=0;pointerEvents=1;fontSize=16;fontFamily=Verdana;fontColor=default;labelBackgroundColor=none;align=center;verticalAlign=middle;" vertex="1" parent="kMWV7Tq6YKES29FpWrLy-33">
          <mxGeometry x="385" width="75" height="31" as="geometry">
            <mxRectangle width="75" height="31" as="alternateBounds" />
          </mxGeometry>
        </mxCell>
        <mxCell id="kMWV7Tq6YKES29FpWrLy-55" style="shape=tableRow;horizontal=0;startSize=0;swimlaneHead=0;swimlaneBody=0;strokeColor=inherit;top=0;left=0;bottom=0;right=0;collapsible=0;dropTarget=0;fillColor=none;points=[[0,0.5],[1,0.5]];portConstraint=eastwest;fontSize=16;fontFamily=Verdana;fontColor=default;labelBackgroundColor=none;" parent="kMWV7Tq6YKES29FpWrLy-28" vertex="1">
          <mxGeometry y="94" width="460" height="31" as="geometry" />
        </mxCell>
        <mxCell id="kMWV7Tq6YKES29FpWrLy-56" value="&lt;span style=&quot;font-size: 12px;&quot;&gt;MainMenu&lt;/span&gt;" style="shape=partialRectangle;html=1;whiteSpace=wrap;connectable=0;strokeColor=inherit;overflow=hidden;fillColor=none;top=0;left=0;bottom=0;right=0;pointerEvents=1;fontSize=16;fontFamily=Verdana;fontColor=default;labelBackgroundColor=none;" parent="kMWV7Tq6YKES29FpWrLy-55" vertex="1">
          <mxGeometry width="140" height="31" as="geometry">
            <mxRectangle width="140" height="31" as="alternateBounds" />
          </mxGeometry>
        </mxCell>
        <mxCell id="kMWV7Tq6YKES29FpWrLy-57" value="3" style="shape=partialRectangle;html=1;whiteSpace=wrap;connectable=0;strokeColor=inherit;overflow=hidden;fillColor=none;top=0;left=0;bottom=0;right=0;pointerEvents=1;fontSize=16;fontFamily=Verdana;fontColor=default;labelBackgroundColor=none;" parent="kMWV7Tq6YKES29FpWrLy-55" vertex="1">
          <mxGeometry x="140" width="90" height="31" as="geometry">
            <mxRectangle width="90" height="31" as="alternateBounds" />
          </mxGeometry>
        </mxCell>
        <mxCell id="kMWV7Tq6YKES29FpWrLy-58" value="&lt;span style=&quot;font-size: 12px;&quot;&gt;AddBatchColmeiaForm&lt;/span&gt;" style="shape=partialRectangle;html=1;whiteSpace=wrap;connectable=0;strokeColor=inherit;overflow=hidden;fillColor=none;top=0;left=0;bottom=0;right=0;pointerEvents=1;fontSize=16;fontFamily=Verdana;fontColor=default;labelBackgroundColor=none;align=center;verticalAlign=middle;" parent="kMWV7Tq6YKES29FpWrLy-55" vertex="1">
          <mxGeometry x="230" width="155" height="31" as="geometry">
            <mxRectangle width="155" height="31" as="alternateBounds" />
          </mxGeometry>
        </mxCell>
        <mxCell id="T-Q8wNnsPFHWrumnl-Iw-4" value="&lt;span style=&quot;color: rgb(0, 0, 0); font-family: Verdana; font-size: 16px; font-style: normal; font-variant-ligatures: normal; font-variant-caps: normal; font-weight: 400; letter-spacing: normal; orphans: 2; text-align: center; text-indent: 0px; text-transform: none; widows: 2; word-spacing: 0px; -webkit-text-stroke-width: 0px; white-space: normal; background-color: rgb(236, 236, 236); text-decoration-thickness: initial; text-decoration-style: initial; text-decoration-color: initial; display: inline !important; float: none;&quot;&gt;nil&lt;/span&gt;" style="shape=partialRectangle;html=1;whiteSpace=wrap;connectable=0;strokeColor=inherit;overflow=hidden;fillColor=none;top=0;left=0;bottom=0;right=0;pointerEvents=1;fontSize=16;fontFamily=Verdana;fontColor=default;labelBackgroundColor=none;align=center;verticalAlign=middle;" vertex="1" parent="kMWV7Tq6YKES29FpWrLy-55">
          <mxGeometry x="385" width="75" height="31" as="geometry">
            <mxRectangle width="75" height="31" as="alternateBounds" />
          </mxGeometry>
        </mxCell>
        <mxCell id="PuNRFbzjE-Kwyge932pz-14" style="shape=tableRow;horizontal=0;startSize=0;swimlaneHead=0;swimlaneBody=0;strokeColor=inherit;top=0;left=0;bottom=0;right=0;collapsible=0;dropTarget=0;fillColor=none;points=[[0,0.5],[1,0.5]];portConstraint=eastwest;fontSize=16;fontFamily=Verdana;fontColor=default;labelBackgroundColor=none;" parent="kMWV7Tq6YKES29FpWrLy-28" vertex="1">
          <mxGeometry y="125" width="460" height="31" as="geometry" />
        </mxCell>
        <mxCell id="PuNRFbzjE-Kwyge932pz-15" value="&lt;span style=&quot;font-size: 12px;&quot;&gt;MainMenu&lt;/span&gt;" style="shape=partialRectangle;html=1;whiteSpace=wrap;connectable=0;strokeColor=inherit;overflow=hidden;fillColor=none;top=0;left=0;bottom=0;right=0;pointerEvents=1;fontSize=16;fontFamily=Verdana;fontColor=default;labelBackgroundColor=none;" parent="PuNRFbzjE-Kwyge932pz-14" vertex="1">
          <mxGeometry width="140" height="31" as="geometry">
            <mxRectangle width="140" height="31" as="alternateBounds" />
          </mxGeometry>
        </mxCell>
        <mxCell id="PuNRFbzjE-Kwyge932pz-16" value="invalid text" style="shape=partialRectangle;html=1;whiteSpace=wrap;connectable=0;strokeColor=inherit;overflow=hidden;fillColor=none;top=0;left=0;bottom=0;right=0;pointerEvents=1;fontSize=16;fontFamily=Verdana;fontColor=default;labelBackgroundColor=none;" parent="PuNRFbzjE-Kwyge932pz-14" vertex="1">
          <mxGeometry x="140" width="90" height="31" as="geometry">
            <mxRectangle width="90" height="31" as="alternateBounds" />
          </mxGeometry>
        </mxCell>
        <mxCell id="PuNRFbzjE-Kwyge932pz-17" value="&lt;span style=&quot;font-size: 12px;&quot;&gt;MainMenu&lt;/span&gt;" style="shape=partialRectangle;html=1;whiteSpace=wrap;connectable=0;strokeColor=inherit;overflow=hidden;fillColor=none;top=0;left=0;bottom=0;right=0;pointerEvents=1;fontSize=16;fontFamily=Verdana;fontColor=default;labelBackgroundColor=none;align=center;verticalAlign=middle;" parent="PuNRFbzjE-Kwyge932pz-14" vertex="1">
          <mxGeometry x="230" width="155" height="31" as="geometry">
            <mxRectangle width="155" height="31" as="alternateBounds" />
          </mxGeometry>
        </mxCell>
        <mxCell id="T-Q8wNnsPFHWrumnl-Iw-5" value="error" style="shape=partialRectangle;html=1;whiteSpace=wrap;connectable=0;strokeColor=inherit;overflow=hidden;fillColor=none;top=0;left=0;bottom=0;right=0;pointerEvents=1;fontSize=16;fontFamily=Verdana;fontColor=default;labelBackgroundColor=none;align=center;verticalAlign=middle;" vertex="1" parent="PuNRFbzjE-Kwyge932pz-14">
          <mxGeometry x="385" width="75" height="31" as="geometry">
            <mxRectangle width="75" height="31" as="alternateBounds" />
          </mxGeometry>
        </mxCell>
        <mxCell id="kMWV7Tq6YKES29FpWrLy-59" style="shape=tableRow;horizontal=0;startSize=0;swimlaneHead=0;swimlaneBody=0;strokeColor=inherit;top=0;left=0;bottom=0;right=0;collapsible=0;dropTarget=0;fillColor=none;points=[[0,0.5],[1,0.5]];portConstraint=eastwest;fontSize=16;fontFamily=Verdana;fontColor=default;labelBackgroundColor=none;" parent="kMWV7Tq6YKES29FpWrLy-28" vertex="1">
          <mxGeometry y="156" width="460" height="31" as="geometry" />
        </mxCell>
        <mxCell id="kMWV7Tq6YKES29FpWrLy-60" value="&lt;span style=&quot;font-size: 12px;&quot;&gt;ListColmeia&lt;/span&gt;" style="shape=partialRectangle;html=1;whiteSpace=wrap;connectable=0;strokeColor=inherit;overflow=hidden;fillColor=none;top=0;left=0;bottom=0;right=0;pointerEvents=1;fontSize=16;fontFamily=Verdana;fontColor=default;labelBackgroundColor=none;" parent="kMWV7Tq6YKES29FpWrLy-59" vertex="1">
          <mxGeometry width="140" height="31" as="geometry">
            <mxRectangle width="140" height="31" as="alternateBounds" />
          </mxGeometry>
        </mxCell>
        <mxCell id="kMWV7Tq6YKES29FpWrLy-61" value="any" style="shape=partialRectangle;html=1;whiteSpace=wrap;connectable=0;strokeColor=inherit;overflow=hidden;fillColor=none;top=0;left=0;bottom=0;right=0;pointerEvents=1;fontSize=16;fontFamily=Verdana;fontColor=default;labelBackgroundColor=none;" parent="kMWV7Tq6YKES29FpWrLy-59" vertex="1">
          <mxGeometry x="140" width="90" height="31" as="geometry">
            <mxRectangle width="90" height="31" as="alternateBounds" />
          </mxGeometry>
        </mxCell>
        <mxCell id="kMWV7Tq6YKES29FpWrLy-62" value="init" style="shape=partialRectangle;html=1;whiteSpace=wrap;connectable=0;strokeColor=inherit;overflow=hidden;fillColor=none;top=0;left=0;bottom=0;right=0;pointerEvents=1;fontSize=16;fontFamily=Verdana;fontColor=default;labelBackgroundColor=none;align=center;verticalAlign=middle;" parent="kMWV7Tq6YKES29FpWrLy-59" vertex="1">
          <mxGeometry x="230" width="155" height="31" as="geometry">
            <mxRectangle width="155" height="31" as="alternateBounds" />
          </mxGeometry>
        </mxCell>
        <mxCell id="T-Q8wNnsPFHWrumnl-Iw-6" value="&lt;span style=&quot;color: rgb(0, 0, 0); font-family: Verdana; font-size: 16px; font-style: normal; font-variant-ligatures: normal; font-variant-caps: normal; font-weight: 400; letter-spacing: normal; orphans: 2; text-align: center; text-indent: 0px; text-transform: none; widows: 2; word-spacing: 0px; -webkit-text-stroke-width: 0px; white-space: normal; background-color: rgb(236, 236, 236); text-decoration-thickness: initial; text-decoration-style: initial; text-decoration-color: initial; display: inline !important; float: none;&quot;&gt;nil&lt;/span&gt;" style="shape=partialRectangle;html=1;whiteSpace=wrap;connectable=0;strokeColor=inherit;overflow=hidden;fillColor=none;top=0;left=0;bottom=0;right=0;pointerEvents=1;fontSize=16;fontFamily=Verdana;fontColor=default;labelBackgroundColor=none;align=center;verticalAlign=middle;" vertex="1" parent="kMWV7Tq6YKES29FpWrLy-59">
          <mxGeometry x="385" width="75" height="31" as="geometry">
            <mxRectangle width="75" height="31" as="alternateBounds" />
          </mxGeometry>
        </mxCell>
        <mxCell id="kMWV7Tq6YKES29FpWrLy-63" style="shape=tableRow;horizontal=0;startSize=0;swimlaneHead=0;swimlaneBody=0;strokeColor=inherit;top=0;left=0;bottom=0;right=0;collapsible=0;dropTarget=0;fillColor=none;points=[[0,0.5],[1,0.5]];portConstraint=eastwest;fontSize=16;fontFamily=Verdana;fontColor=default;labelBackgroundColor=none;" parent="kMWV7Tq6YKES29FpWrLy-28" vertex="1">
          <mxGeometry y="187" width="460" height="32" as="geometry" />
        </mxCell>
        <mxCell id="kMWV7Tq6YKES29FpWrLy-64" value="&lt;span style=&quot;font-size: 12px;&quot;&gt;AddColmeiaForm&lt;/span&gt;" style="shape=partialRectangle;html=1;whiteSpace=wrap;connectable=0;strokeColor=inherit;overflow=hidden;fillColor=none;top=0;left=0;bottom=0;right=0;pointerEvents=1;fontSize=16;fontFamily=Verdana;fontColor=default;labelBackgroundColor=none;" parent="kMWV7Tq6YKES29FpWrLy-63" vertex="1">
          <mxGeometry width="140" height="32" as="geometry">
            <mxRectangle width="140" height="32" as="alternateBounds" />
          </mxGeometry>
        </mxCell>
        <mxCell id="kMWV7Tq6YKES29FpWrLy-65" value="valid text" style="shape=partialRectangle;html=1;whiteSpace=wrap;connectable=0;strokeColor=inherit;overflow=hidden;fillColor=none;top=0;left=0;bottom=0;right=0;pointerEvents=1;fontSize=16;fontFamily=Verdana;fontColor=default;labelBackgroundColor=none;" parent="kMWV7Tq6YKES29FpWrLy-63" vertex="1">
          <mxGeometry x="140" width="90" height="32" as="geometry">
            <mxRectangle width="90" height="32" as="alternateBounds" />
          </mxGeometry>
        </mxCell>
        <mxCell id="kMWV7Tq6YKES29FpWrLy-66" value="&lt;span style=&quot;font-size: 12px;&quot;&gt;Success&lt;/span&gt;" style="shape=partialRectangle;html=1;whiteSpace=wrap;connectable=0;strokeColor=inherit;overflow=hidden;fillColor=none;top=0;left=0;bottom=0;right=0;pointerEvents=1;fontSize=16;fontFamily=Verdana;fontColor=default;labelBackgroundColor=none;align=center;verticalAlign=middle;" parent="kMWV7Tq6YKES29FpWrLy-63" vertex="1">
          <mxGeometry x="230" width="155" height="32" as="geometry">
            <mxRectangle width="155" height="32" as="alternateBounds" />
          </mxGeometry>
        </mxCell>
        <mxCell id="T-Q8wNnsPFHWrumnl-Iw-7" value="&lt;span style=&quot;color: rgb(0, 0, 0); font-family: Verdana; font-size: 16px; font-style: normal; font-variant-ligatures: normal; font-variant-caps: normal; font-weight: 400; letter-spacing: normal; orphans: 2; text-align: center; text-indent: 0px; text-transform: none; widows: 2; word-spacing: 0px; -webkit-text-stroke-width: 0px; white-space: normal; background-color: rgb(236, 236, 236); text-decoration-thickness: initial; text-decoration-style: initial; text-decoration-color: initial; display: inline !important; float: none;&quot;&gt;nil&lt;/span&gt;" style="shape=partialRectangle;html=1;whiteSpace=wrap;connectable=0;strokeColor=inherit;overflow=hidden;fillColor=none;top=0;left=0;bottom=0;right=0;pointerEvents=1;fontSize=16;fontFamily=Verdana;fontColor=default;labelBackgroundColor=none;align=center;verticalAlign=middle;" vertex="1" parent="kMWV7Tq6YKES29FpWrLy-63">
          <mxGeometry x="385" width="75" height="32" as="geometry">
            <mxRectangle width="75" height="32" as="alternateBounds" />
          </mxGeometry>
        </mxCell>
        <mxCell id="kMWV7Tq6YKES29FpWrLy-67" style="shape=tableRow;horizontal=0;startSize=0;swimlaneHead=0;swimlaneBody=0;strokeColor=inherit;top=0;left=0;bottom=0;right=0;collapsible=0;dropTarget=0;fillColor=none;points=[[0,0.5],[1,0.5]];portConstraint=eastwest;fontSize=16;fontFamily=Verdana;fontColor=default;labelBackgroundColor=none;" parent="kMWV7Tq6YKES29FpWrLy-28" vertex="1">
          <mxGeometry y="219" width="460" height="31" as="geometry" />
        </mxCell>
        <mxCell id="kMWV7Tq6YKES29FpWrLy-68" value="&lt;span style=&quot;font-size: 12px;&quot;&gt;AddColmeiaForm&lt;/span&gt;" style="shape=partialRectangle;html=1;whiteSpace=wrap;connectable=0;strokeColor=inherit;overflow=hidden;fillColor=none;top=0;left=0;bottom=0;right=0;pointerEvents=1;fontSize=16;fontFamily=Verdana;fontColor=default;labelBackgroundColor=none;" parent="kMWV7Tq6YKES29FpWrLy-67" vertex="1">
          <mxGeometry width="140" height="31" as="geometry">
            <mxRectangle width="140" height="31" as="alternateBounds" />
          </mxGeometry>
        </mxCell>
        <mxCell id="kMWV7Tq6YKES29FpWrLy-69" value="invalid text" style="shape=partialRectangle;html=1;whiteSpace=wrap;connectable=0;strokeColor=inherit;overflow=hidden;fillColor=none;top=0;left=0;bottom=0;right=0;pointerEvents=1;fontSize=16;fontFamily=Verdana;fontColor=default;labelBackgroundColor=none;" parent="kMWV7Tq6YKES29FpWrLy-67" vertex="1">
          <mxGeometry x="140" width="90" height="31" as="geometry">
            <mxRectangle width="90" height="31" as="alternateBounds" />
          </mxGeometry>
        </mxCell>
        <mxCell id="kMWV7Tq6YKES29FpWrLy-70" value="&lt;span style=&quot;font-size: 12px;&quot;&gt;Fail&lt;/span&gt;" style="shape=partialRectangle;html=1;whiteSpace=wrap;connectable=0;strokeColor=inherit;overflow=hidden;fillColor=none;top=0;left=0;bottom=0;right=0;pointerEvents=1;fontSize=16;fontFamily=Verdana;fontColor=default;labelBackgroundColor=none;align=center;verticalAlign=middle;" parent="kMWV7Tq6YKES29FpWrLy-67" vertex="1">
          <mxGeometry x="230" width="155" height="31" as="geometry">
            <mxRectangle width="155" height="31" as="alternateBounds" />
          </mxGeometry>
        </mxCell>
        <mxCell id="T-Q8wNnsPFHWrumnl-Iw-8" value="error" style="shape=partialRectangle;html=1;whiteSpace=wrap;connectable=0;strokeColor=inherit;overflow=hidden;fillColor=none;top=0;left=0;bottom=0;right=0;pointerEvents=1;fontSize=16;fontFamily=Verdana;fontColor=default;labelBackgroundColor=none;align=center;verticalAlign=middle;" vertex="1" parent="kMWV7Tq6YKES29FpWrLy-67">
          <mxGeometry x="385" width="75" height="31" as="geometry">
            <mxRectangle width="75" height="31" as="alternateBounds" />
          </mxGeometry>
        </mxCell>
        <mxCell id="kMWV7Tq6YKES29FpWrLy-71" style="shape=tableRow;horizontal=0;startSize=0;swimlaneHead=0;swimlaneBody=0;strokeColor=inherit;top=0;left=0;bottom=0;right=0;collapsible=0;dropTarget=0;fillColor=none;points=[[0,0.5],[1,0.5]];portConstraint=eastwest;fontSize=16;fontFamily=Verdana;fontColor=default;labelBackgroundColor=none;" parent="kMWV7Tq6YKES29FpWrLy-28" vertex="1">
          <mxGeometry y="250" width="460" height="31" as="geometry" />
        </mxCell>
        <mxCell id="kMWV7Tq6YKES29FpWrLy-72" value="&lt;span style=&quot;font-size: 12px;&quot;&gt;AddColmeiaForm&lt;/span&gt;" style="shape=partialRectangle;html=1;whiteSpace=wrap;connectable=0;strokeColor=inherit;overflow=hidden;fillColor=none;top=0;left=0;bottom=0;right=0;pointerEvents=1;fontSize=16;fontFamily=Verdana;fontColor=default;labelBackgroundColor=none;" parent="kMWV7Tq6YKES29FpWrLy-71" vertex="1">
          <mxGeometry width="140" height="31" as="geometry">
            <mxRectangle width="140" height="31" as="alternateBounds" />
          </mxGeometry>
        </mxCell>
        <mxCell id="kMWV7Tq6YKES29FpWrLy-73" value="sair" style="shape=partialRectangle;html=1;whiteSpace=wrap;connectable=0;strokeColor=inherit;overflow=hidden;fillColor=none;top=0;left=0;bottom=0;right=0;pointerEvents=1;fontSize=16;fontFamily=Verdana;fontColor=default;labelBackgroundColor=none;" parent="kMWV7Tq6YKES29FpWrLy-71" vertex="1">
          <mxGeometry x="140" width="90" height="31" as="geometry">
            <mxRectangle width="90" height="31" as="alternateBounds" />
          </mxGeometry>
        </mxCell>
        <mxCell id="kMWV7Tq6YKES29FpWrLy-74" value="init" style="shape=partialRectangle;html=1;whiteSpace=wrap;connectable=0;strokeColor=inherit;overflow=hidden;fillColor=none;top=0;left=0;bottom=0;right=0;pointerEvents=1;fontSize=16;fontFamily=Verdana;fontColor=default;labelBackgroundColor=none;align=center;verticalAlign=middle;" parent="kMWV7Tq6YKES29FpWrLy-71" vertex="1">
          <mxGeometry x="230" width="155" height="31" as="geometry">
            <mxRectangle width="155" height="31" as="alternateBounds" />
          </mxGeometry>
        </mxCell>
        <mxCell id="T-Q8wNnsPFHWrumnl-Iw-9" value="&lt;span style=&quot;color: rgb(0, 0, 0); font-family: Verdana; font-size: 16px; font-style: normal; font-variant-ligatures: normal; font-variant-caps: normal; font-weight: 400; letter-spacing: normal; orphans: 2; text-align: center; text-indent: 0px; text-transform: none; widows: 2; word-spacing: 0px; -webkit-text-stroke-width: 0px; white-space: normal; background-color: rgb(236, 236, 236); text-decoration-thickness: initial; text-decoration-style: initial; text-decoration-color: initial; display: inline !important; float: none;&quot;&gt;nil&lt;/span&gt;" style="shape=partialRectangle;html=1;whiteSpace=wrap;connectable=0;strokeColor=inherit;overflow=hidden;fillColor=none;top=0;left=0;bottom=0;right=0;pointerEvents=1;fontSize=16;fontFamily=Verdana;fontColor=default;labelBackgroundColor=none;align=center;verticalAlign=middle;" vertex="1" parent="kMWV7Tq6YKES29FpWrLy-71">
          <mxGeometry x="385" width="75" height="31" as="geometry">
            <mxRectangle width="75" height="31" as="alternateBounds" />
          </mxGeometry>
        </mxCell>
        <mxCell id="kMWV7Tq6YKES29FpWrLy-83" style="shape=tableRow;horizontal=0;startSize=0;swimlaneHead=0;swimlaneBody=0;strokeColor=inherit;top=0;left=0;bottom=0;right=0;collapsible=0;dropTarget=0;fillColor=none;points=[[0,0.5],[1,0.5]];portConstraint=eastwest;fontSize=16;fontFamily=Verdana;fontColor=default;labelBackgroundColor=none;" parent="kMWV7Tq6YKES29FpWrLy-28" vertex="1">
          <mxGeometry y="281" width="460" height="31" as="geometry" />
        </mxCell>
        <mxCell id="kMWV7Tq6YKES29FpWrLy-84" value="&lt;span style=&quot;font-size: 12px;&quot;&gt;AddBatchColmeiaForm&lt;/span&gt;" style="shape=partialRectangle;html=1;whiteSpace=wrap;connectable=0;strokeColor=inherit;overflow=hidden;fillColor=none;top=0;left=0;bottom=0;right=0;pointerEvents=1;fontSize=16;fontFamily=Verdana;fontColor=default;labelBackgroundColor=none;" parent="kMWV7Tq6YKES29FpWrLy-83" vertex="1">
          <mxGeometry width="140" height="31" as="geometry">
            <mxRectangle width="140" height="31" as="alternateBounds" />
          </mxGeometry>
        </mxCell>
        <mxCell id="kMWV7Tq6YKES29FpWrLy-85" value="valid text" style="shape=partialRectangle;html=1;whiteSpace=wrap;connectable=0;strokeColor=inherit;overflow=hidden;fillColor=none;top=0;left=0;bottom=0;right=0;pointerEvents=1;fontSize=16;fontFamily=Verdana;fontColor=default;labelBackgroundColor=none;" parent="kMWV7Tq6YKES29FpWrLy-83" vertex="1">
          <mxGeometry x="140" width="90" height="31" as="geometry">
            <mxRectangle width="90" height="31" as="alternateBounds" />
          </mxGeometry>
        </mxCell>
        <mxCell id="kMWV7Tq6YKES29FpWrLy-86" value="&lt;span style=&quot;font-size: 12px;&quot;&gt;Success&lt;/span&gt;" style="shape=partialRectangle;html=1;whiteSpace=wrap;connectable=0;strokeColor=inherit;overflow=hidden;fillColor=none;top=0;left=0;bottom=0;right=0;pointerEvents=1;fontSize=16;fontFamily=Verdana;fontColor=default;labelBackgroundColor=none;align=center;verticalAlign=middle;" parent="kMWV7Tq6YKES29FpWrLy-83" vertex="1">
          <mxGeometry x="230" width="155" height="31" as="geometry">
            <mxRectangle width="155" height="31" as="alternateBounds" />
          </mxGeometry>
        </mxCell>
        <mxCell id="T-Q8wNnsPFHWrumnl-Iw-10" value="&lt;span style=&quot;color: rgb(0, 0, 0); font-family: Verdana; font-size: 16px; font-style: normal; font-variant-ligatures: normal; font-variant-caps: normal; font-weight: 400; letter-spacing: normal; orphans: 2; text-align: center; text-indent: 0px; text-transform: none; widows: 2; word-spacing: 0px; -webkit-text-stroke-width: 0px; white-space: normal; background-color: rgb(236, 236, 236); text-decoration-thickness: initial; text-decoration-style: initial; text-decoration-color: initial; display: inline !important; float: none;&quot;&gt;nil&lt;/span&gt;" style="shape=partialRectangle;html=1;whiteSpace=wrap;connectable=0;strokeColor=inherit;overflow=hidden;fillColor=none;top=0;left=0;bottom=0;right=0;pointerEvents=1;fontSize=16;fontFamily=Verdana;fontColor=default;labelBackgroundColor=none;align=center;verticalAlign=middle;" vertex="1" parent="kMWV7Tq6YKES29FpWrLy-83">
          <mxGeometry x="385" width="75" height="31" as="geometry">
            <mxRectangle width="75" height="31" as="alternateBounds" />
          </mxGeometry>
        </mxCell>
        <mxCell id="kMWV7Tq6YKES29FpWrLy-79" style="shape=tableRow;horizontal=0;startSize=0;swimlaneHead=0;swimlaneBody=0;strokeColor=inherit;top=0;left=0;bottom=0;right=0;collapsible=0;dropTarget=0;fillColor=none;points=[[0,0.5],[1,0.5]];portConstraint=eastwest;fontSize=16;fontFamily=Verdana;fontColor=default;labelBackgroundColor=none;" parent="kMWV7Tq6YKES29FpWrLy-28" vertex="1">
          <mxGeometry y="312" width="460" height="31" as="geometry" />
        </mxCell>
        <mxCell id="kMWV7Tq6YKES29FpWrLy-80" value="&lt;span style=&quot;font-size: 12px;&quot;&gt;AddBatchColmeiaForm&lt;/span&gt;" style="shape=partialRectangle;html=1;whiteSpace=wrap;connectable=0;strokeColor=inherit;overflow=hidden;fillColor=none;top=0;left=0;bottom=0;right=0;pointerEvents=1;fontSize=16;fontFamily=Verdana;fontColor=default;labelBackgroundColor=none;" parent="kMWV7Tq6YKES29FpWrLy-79" vertex="1">
          <mxGeometry width="140" height="31" as="geometry">
            <mxRectangle width="140" height="31" as="alternateBounds" />
          </mxGeometry>
        </mxCell>
        <mxCell id="kMWV7Tq6YKES29FpWrLy-81" value="invalid text" style="shape=partialRectangle;html=1;whiteSpace=wrap;connectable=0;strokeColor=inherit;overflow=hidden;fillColor=none;top=0;left=0;bottom=0;right=0;pointerEvents=1;fontSize=16;fontFamily=Verdana;fontColor=default;labelBackgroundColor=none;" parent="kMWV7Tq6YKES29FpWrLy-79" vertex="1">
          <mxGeometry x="140" width="90" height="31" as="geometry">
            <mxRectangle width="90" height="31" as="alternateBounds" />
          </mxGeometry>
        </mxCell>
        <mxCell id="kMWV7Tq6YKES29FpWrLy-82" value="&lt;span style=&quot;font-size: 12px;&quot;&gt;Fail&lt;/span&gt;" style="shape=partialRectangle;html=1;whiteSpace=wrap;connectable=0;strokeColor=inherit;overflow=hidden;fillColor=none;top=0;left=0;bottom=0;right=0;pointerEvents=1;fontSize=16;fontFamily=Verdana;fontColor=default;labelBackgroundColor=none;align=center;verticalAlign=middle;" parent="kMWV7Tq6YKES29FpWrLy-79" vertex="1">
          <mxGeometry x="230" width="155" height="31" as="geometry">
            <mxRectangle width="155" height="31" as="alternateBounds" />
          </mxGeometry>
        </mxCell>
        <mxCell id="T-Q8wNnsPFHWrumnl-Iw-11" value="error" style="shape=partialRectangle;html=1;whiteSpace=wrap;connectable=0;strokeColor=inherit;overflow=hidden;fillColor=none;top=0;left=0;bottom=0;right=0;pointerEvents=1;fontSize=16;fontFamily=Verdana;fontColor=default;labelBackgroundColor=none;align=center;verticalAlign=middle;" vertex="1" parent="kMWV7Tq6YKES29FpWrLy-79">
          <mxGeometry x="385" width="75" height="31" as="geometry">
            <mxRectangle width="75" height="31" as="alternateBounds" />
          </mxGeometry>
        </mxCell>
        <mxCell id="kMWV7Tq6YKES29FpWrLy-75" style="shape=tableRow;horizontal=0;startSize=0;swimlaneHead=0;swimlaneBody=0;strokeColor=inherit;top=0;left=0;bottom=0;right=0;collapsible=0;dropTarget=0;fillColor=none;points=[[0,0.5],[1,0.5]];portConstraint=eastwest;fontSize=16;fontFamily=Verdana;fontColor=default;labelBackgroundColor=none;" parent="kMWV7Tq6YKES29FpWrLy-28" vertex="1">
          <mxGeometry y="343" width="460" height="31" as="geometry" />
        </mxCell>
        <mxCell id="kMWV7Tq6YKES29FpWrLy-76" value="&lt;span style=&quot;font-size: 12px;&quot;&gt;AddBatchColmeiaForm&lt;/span&gt;" style="shape=partialRectangle;html=1;whiteSpace=wrap;connectable=0;strokeColor=inherit;overflow=hidden;fillColor=none;top=0;left=0;bottom=0;right=0;pointerEvents=1;fontSize=16;fontFamily=Verdana;fontColor=default;labelBackgroundColor=none;" parent="kMWV7Tq6YKES29FpWrLy-75" vertex="1">
          <mxGeometry width="140" height="31" as="geometry">
            <mxRectangle width="140" height="31" as="alternateBounds" />
          </mxGeometry>
        </mxCell>
        <mxCell id="kMWV7Tq6YKES29FpWrLy-77" value="sair" style="shape=partialRectangle;html=1;whiteSpace=wrap;connectable=0;strokeColor=inherit;overflow=hidden;fillColor=none;top=0;left=0;bottom=0;right=0;pointerEvents=1;fontSize=16;fontFamily=Verdana;fontColor=default;labelBackgroundColor=none;" parent="kMWV7Tq6YKES29FpWrLy-75" vertex="1">
          <mxGeometry x="140" width="90" height="31" as="geometry">
            <mxRectangle width="90" height="31" as="alternateBounds" />
          </mxGeometry>
        </mxCell>
        <mxCell id="kMWV7Tq6YKES29FpWrLy-78" value="init" style="shape=partialRectangle;html=1;whiteSpace=wrap;connectable=0;strokeColor=inherit;overflow=hidden;fillColor=none;top=0;left=0;bottom=0;right=0;pointerEvents=1;fontSize=16;fontFamily=Verdana;fontColor=default;labelBackgroundColor=none;" parent="kMWV7Tq6YKES29FpWrLy-75" vertex="1">
          <mxGeometry x="230" width="155" height="31" as="geometry">
            <mxRectangle width="155" height="31" as="alternateBounds" />
          </mxGeometry>
        </mxCell>
        <mxCell id="T-Q8wNnsPFHWrumnl-Iw-12" value="&lt;span style=&quot;color: rgb(0, 0, 0); font-family: Verdana; font-size: 16px; font-style: normal; font-variant-ligatures: normal; font-variant-caps: normal; font-weight: 400; letter-spacing: normal; orphans: 2; text-align: center; text-indent: 0px; text-transform: none; widows: 2; word-spacing: 0px; -webkit-text-stroke-width: 0px; white-space: normal; background-color: rgb(236, 236, 236); text-decoration-thickness: initial; text-decoration-style: initial; text-decoration-color: initial; display: inline !important; float: none;&quot;&gt;nil&lt;/span&gt;" style="shape=partialRectangle;html=1;whiteSpace=wrap;connectable=0;strokeColor=inherit;overflow=hidden;fillColor=none;top=0;left=0;bottom=0;right=0;pointerEvents=1;fontSize=16;fontFamily=Verdana;fontColor=default;labelBackgroundColor=none;" vertex="1" parent="kMWV7Tq6YKES29FpWrLy-75">
          <mxGeometry x="385" width="75" height="31" as="geometry">
            <mxRectangle width="75" height="31" as="alternateBounds" />
          </mxGeometry>
        </mxCell>
        <mxCell id="yJ4q5J1CECv90yG7Kmli-1" style="shape=tableRow;horizontal=0;startSize=0;swimlaneHead=0;swimlaneBody=0;strokeColor=inherit;top=0;left=0;bottom=0;right=0;collapsible=0;dropTarget=0;fillColor=none;points=[[0,0.5],[1,0.5]];portConstraint=eastwest;fontSize=16;fontFamily=Verdana;fontColor=default;labelBackgroundColor=none;" parent="kMWV7Tq6YKES29FpWrLy-28" vertex="1">
          <mxGeometry y="374" width="460" height="31" as="geometry" />
        </mxCell>
        <mxCell id="yJ4q5J1CECv90yG7Kmli-2" value="&lt;span style=&quot;font-size: 12px;&quot;&gt;Success&lt;/span&gt;" style="shape=partialRectangle;html=1;whiteSpace=wrap;connectable=0;strokeColor=inherit;overflow=hidden;fillColor=none;top=0;left=0;bottom=0;right=0;pointerEvents=1;fontSize=16;fontFamily=Verdana;fontColor=default;labelBackgroundColor=none;" parent="yJ4q5J1CECv90yG7Kmli-1" vertex="1">
          <mxGeometry width="140" height="31" as="geometry">
            <mxRectangle width="140" height="31" as="alternateBounds" />
          </mxGeometry>
        </mxCell>
        <mxCell id="yJ4q5J1CECv90yG7Kmli-3" value="any" style="shape=partialRectangle;html=1;whiteSpace=wrap;connectable=0;strokeColor=inherit;overflow=hidden;fillColor=none;top=0;left=0;bottom=0;right=0;pointerEvents=1;fontSize=16;fontFamily=Verdana;fontColor=default;labelBackgroundColor=none;" parent="yJ4q5J1CECv90yG7Kmli-1" vertex="1">
          <mxGeometry x="140" width="90" height="31" as="geometry">
            <mxRectangle width="90" height="31" as="alternateBounds" />
          </mxGeometry>
        </mxCell>
        <mxCell id="yJ4q5J1CECv90yG7Kmli-4" value="init" style="shape=partialRectangle;html=1;whiteSpace=wrap;connectable=0;strokeColor=inherit;overflow=hidden;fillColor=none;top=0;left=0;bottom=0;right=0;pointerEvents=1;fontSize=16;fontFamily=Verdana;fontColor=default;labelBackgroundColor=none;" parent="yJ4q5J1CECv90yG7Kmli-1" vertex="1">
          <mxGeometry x="230" width="155" height="31" as="geometry">
            <mxRectangle width="155" height="31" as="alternateBounds" />
          </mxGeometry>
        </mxCell>
        <mxCell id="T-Q8wNnsPFHWrumnl-Iw-13" value="&lt;span style=&quot;color: rgb(0, 0, 0); font-family: Verdana; font-size: 16px; font-style: normal; font-variant-ligatures: normal; font-variant-caps: normal; font-weight: 400; letter-spacing: normal; orphans: 2; text-align: center; text-indent: 0px; text-transform: none; widows: 2; word-spacing: 0px; -webkit-text-stroke-width: 0px; white-space: normal; background-color: rgb(236, 236, 236); text-decoration-thickness: initial; text-decoration-style: initial; text-decoration-color: initial; display: inline !important; float: none;&quot;&gt;nil&lt;/span&gt;" style="shape=partialRectangle;html=1;whiteSpace=wrap;connectable=0;strokeColor=inherit;overflow=hidden;fillColor=none;top=0;left=0;bottom=0;right=0;pointerEvents=1;fontSize=16;fontFamily=Verdana;fontColor=default;labelBackgroundColor=none;" vertex="1" parent="yJ4q5J1CECv90yG7Kmli-1">
          <mxGeometry x="385" width="75" height="31" as="geometry">
            <mxRectangle width="75" height="31" as="alternateBounds" />
          </mxGeometry>
        </mxCell>
        <mxCell id="yJ4q5J1CECv90yG7Kmli-5" style="shape=tableRow;horizontal=0;startSize=0;swimlaneHead=0;swimlaneBody=0;strokeColor=inherit;top=0;left=0;bottom=0;right=0;collapsible=0;dropTarget=0;fillColor=none;points=[[0,0.5],[1,0.5]];portConstraint=eastwest;fontSize=16;fontFamily=Verdana;fontColor=default;labelBackgroundColor=none;" parent="kMWV7Tq6YKES29FpWrLy-28" vertex="1">
          <mxGeometry y="405" width="460" height="31" as="geometry" />
        </mxCell>
        <mxCell id="yJ4q5J1CECv90yG7Kmli-6" value="&lt;span style=&quot;font-size: 12px;&quot;&gt;Fail&lt;/span&gt;" style="shape=partialRectangle;html=1;whiteSpace=wrap;connectable=0;strokeColor=inherit;overflow=hidden;fillColor=none;top=0;left=0;bottom=0;right=0;pointerEvents=1;fontSize=16;fontFamily=Verdana;fontColor=default;labelBackgroundColor=none;" parent="yJ4q5J1CECv90yG7Kmli-5" vertex="1">
          <mxGeometry width="140" height="31" as="geometry">
            <mxRectangle width="140" height="31" as="alternateBounds" />
          </mxGeometry>
        </mxCell>
        <mxCell id="yJ4q5J1CECv90yG7Kmli-7" value="any" style="shape=partialRectangle;html=1;whiteSpace=wrap;connectable=0;strokeColor=inherit;overflow=hidden;fillColor=none;top=0;left=0;bottom=0;right=0;pointerEvents=1;fontSize=16;fontFamily=Verdana;fontColor=default;labelBackgroundColor=none;" parent="yJ4q5J1CECv90yG7Kmli-5" vertex="1">
          <mxGeometry x="140" width="90" height="31" as="geometry">
            <mxRectangle width="90" height="31" as="alternateBounds" />
          </mxGeometry>
        </mxCell>
        <mxCell id="yJ4q5J1CECv90yG7Kmli-8" value="init" style="shape=partialRectangle;html=1;whiteSpace=wrap;connectable=0;strokeColor=inherit;overflow=hidden;fillColor=none;top=0;left=0;bottom=0;right=0;pointerEvents=1;fontSize=16;fontFamily=Verdana;fontColor=default;labelBackgroundColor=none;" parent="yJ4q5J1CECv90yG7Kmli-5" vertex="1">
          <mxGeometry x="230" width="155" height="31" as="geometry">
            <mxRectangle width="155" height="31" as="alternateBounds" />
          </mxGeometry>
        </mxCell>
        <mxCell id="T-Q8wNnsPFHWrumnl-Iw-14" value="&lt;span style=&quot;color: rgb(0, 0, 0); font-family: Verdana; font-size: 16px; font-style: normal; font-variant-ligatures: normal; font-variant-caps: normal; font-weight: 400; letter-spacing: normal; orphans: 2; text-align: center; text-indent: 0px; text-transform: none; widows: 2; word-spacing: 0px; -webkit-text-stroke-width: 0px; white-space: normal; background-color: rgb(236, 236, 236); text-decoration-thickness: initial; text-decoration-style: initial; text-decoration-color: initial; display: inline !important; float: none;&quot;&gt;nil&lt;/span&gt;" style="shape=partialRectangle;html=1;whiteSpace=wrap;connectable=0;strokeColor=inherit;overflow=hidden;fillColor=none;top=0;left=0;bottom=0;right=0;pointerEvents=1;fontSize=16;fontFamily=Verdana;fontColor=default;labelBackgroundColor=none;" vertex="1" parent="yJ4q5J1CECv90yG7Kmli-5">
          <mxGeometry x="385" width="75" height="31" as="geometry">
            <mxRectangle width="75" height="31" as="alternateBounds" />
          </mxGeometry>
        </mxCell>
        <mxCell id="kMWV7Tq6YKES29FpWrLy-87" value="" style="ellipse;whiteSpace=wrap;html=1;rounded=0;shadow=1;comic=0;labelBackgroundColor=none;strokeWidth=1;fontFamily=Verdana;fontSize=12;align=center;direction=west;flipH=0;flipV=1;perimeter=ellipsePerimeter;fillColor=#000000;fillStyle=solid;" parent="1" vertex="1">
          <mxGeometry x="540" y="555" width="25" height="20" as="geometry" />
        </mxCell>
        <mxCell id="kMWV7Tq6YKES29FpWrLy-88" value="init&amp;nbsp;" style="text;html=1;align=center;verticalAlign=middle;resizable=0;points=[];autosize=1;strokeColor=none;fillColor=none;fontFamily=Verdana;fontSize=12;fontColor=default;labelBackgroundColor=none;" parent="1" vertex="1">
          <mxGeometry x="575" y="550" width="40" height="30" as="geometry" />
        </mxCell>
        <mxCell id="kMWV7Tq6YKES29FpWrLy-90" value="&lt;span&gt;interaction&lt;/span&gt;" style="ellipse;whiteSpace=wrap;html=1;rounded=0;shadow=1;comic=0;labelBackgroundColor=none;strokeWidth=1;fontFamily=Verdana;fontSize=12;align=center;direction=west;flipH=0;flipV=1;" parent="1" vertex="1">
          <mxGeometry x="530" y="585" width="75" height="50" as="geometry" />
        </mxCell>
        <mxCell id="kMWV7Tq6YKES29FpWrLy-91" style="edgeStyle=none;rounded=1;html=1;labelBackgroundColor=none;startArrow=none;startFill=0;startSize=5;endArrow=classicThin;endFill=1;endSize=5;jettySize=auto;orthogonalLoop=1;strokeColor=#B3B3B3;strokeWidth=1;fontFamily=Verdana;fontSize=12" parent="1" edge="1">
          <mxGeometry relative="1" as="geometry">
            <mxPoint x="552.26" y="645" as="sourcePoint" />
            <mxPoint x="552" y="695" as="targetPoint" />
            <Array as="points">
              <mxPoint x="552.26" y="685" />
            </Array>
          </mxGeometry>
        </mxCell>
        <mxCell id="kMWV7Tq6YKES29FpWrLy-92" value="input" style="edgeLabel;html=1;align=center;verticalAlign=middle;resizable=0;points=[];" parent="kMWV7Tq6YKES29FpWrLy-91" vertex="1" connectable="0">
          <mxGeometry x="0.04" y="-2" relative="1" as="geometry">
            <mxPoint as="offset" />
          </mxGeometry>
        </mxCell>
        <mxCell id="kMWV7Tq6YKES29FpWrLy-93" value="interaction" style="text;html=1;align=center;verticalAlign=middle;resizable=0;points=[];autosize=1;strokeColor=none;fillColor=none;fontFamily=Verdana;fontSize=12;fontColor=default;labelBackgroundColor=none;" parent="1" vertex="1">
          <mxGeometry x="575" y="40" width="70" height="30" as="geometry" />
        </mxCell>
        <mxCell id="kMWV7Tq6YKES29FpWrLy-94" value="interaction" style="text;html=1;align=center;verticalAlign=middle;resizable=0;points=[];autosize=1;strokeColor=none;fillColor=none;fontFamily=Verdana;fontSize=12;fontColor=default;labelBackgroundColor=none;" parent="1" vertex="1">
          <mxGeometry x="810" y="40" width="70" height="30" as="geometry" />
        </mxCell>
        <mxCell id="kMWV7Tq6YKES29FpWrLy-95" value="input" style="text;html=1;align=center;verticalAlign=middle;resizable=0;points=[];autosize=1;strokeColor=none;fillColor=none;fontFamily=Verdana;fontSize=12;fontColor=default;labelBackgroundColor=none;" parent="1" vertex="1">
          <mxGeometry x="700" y="40" width="50" height="30" as="geometry" />
        </mxCell>
        <mxCell id="PuNRFbzjE-Kwyge932pz-2" style="edgeStyle=orthogonalEdgeStyle;rounded=1;orthogonalLoop=1;jettySize=auto;html=1;exitX=1;exitY=1;exitDx=0;exitDy=0;entryX=1;entryY=0;entryDx=0;entryDy=0;strokeColor=#B3B3B3;strokeWidth=1;align=center;verticalAlign=middle;fontFamily=Verdana;fontSize=12;fontColor=default;labelBackgroundColor=none;startArrow=none;startFill=0;startSize=5;endArrow=classicThin;endFill=1;endSize=5;curved=1;" parent="1" source="1ea317790d2ca983-2" target="1ea317790d2ca983-2" edge="1">
          <mxGeometry relative="1" as="geometry">
            <Array as="points">
              <mxPoint x="170" y="187" />
              <mxPoint x="170" y="223" />
            </Array>
          </mxGeometry>
        </mxCell>
        <mxCell id="PuNRFbzjE-Kwyge932pz-3" value="Text" style="edgeLabel;html=1;align=center;verticalAlign=middle;resizable=0;points=[];" parent="PuNRFbzjE-Kwyge932pz-2" vertex="1" connectable="0">
          <mxGeometry x="0.0354" y="2" relative="1" as="geometry">
            <mxPoint as="offset" />
          </mxGeometry>
        </mxCell>
        <mxCell id="T-Q8wNnsPFHWrumnl-Iw-15" value="error" style="text;html=1;align=center;verticalAlign=middle;resizable=0;points=[];autosize=1;strokeColor=none;fillColor=none;" vertex="1" parent="1">
          <mxGeometry x="935" y="40" width="50" height="30" as="geometry" />
        </mxCell>
      </root>
    </mxGraphModel>
  </diagram>
</mxfile>
